<?xml version="1.0" standalone="no"?>
<!DOCTYPE svg PUBLIC "-//W3C//DTD SVG 20010904//EN"
 "http://www.w3.org/TR/2001/REC-SVG-20010904/DTD/svg10.dtd">
<svg version="1.0" xmlns="http://www.w3.org/2000/svg"
 width="700.000000pt" height="700.000000pt" viewBox="0 0 700.000000 700.000000"
 preserveAspectRatio="xMidYMid meet">
<metadata>
Created by potrace 1.14, written by Peter Selinger 2001-2017
</metadata>
<g transform="translate(0.000000,700.000000) scale(0.100000,-0.100000)"
fill="#000000" stroke="none">
<path d="M1269 6168 c-4 -197 -2 -618 4 -618 5 0 6 -4 3 -8 -3 -5 1 -9 9 -9 8
0 11 5 8 11 -4 6 0 5 9 -2 13 -10 17 -10 21 0 4 10 6 10 6 1 1 -7 6 -13 12
-13 5 0 7 5 3 11 -3 6 9 3 27 -7 25 -12 31 -13 22 -3 -10 12 -6 15 23 14 19 0
34 -4 34 -8 0 -4 9 -3 20 3 11 6 20 7 20 2 0 -5 10 -8 23 -6 12 1 22 3 22 4 0
7 36 6 40 0 3 -5 16 -5 28 -1 15 6 26 4 35 -8 7 -9 11 -11 8 -4 -4 6 -2 14 4
18 5 3 10 1 10 -6 0 -9 3 -9 14 0 11 9 15 9 18 -1 4 -10 8 -10 21 1 11 9 17
10 17 2 0 -11 28 -9 63 4 9 4 17 3 17 -3 0 -5 7 -13 16 -16 8 -3 13 -2 10 3
-9 14 20 21 33 8 8 -8 11 -7 11 4 0 12 2 12 10 -1 9 -13 10 -13 10 0 0 13 1
13 10 0 5 -8 10 -11 10 -7 0 4 10 2 23 -4 19 -11 20 -10 10 2 -10 13 -5 14 35
12 55 -4 59 -4 92 0 14 1 31 -4 38 -13 8 -8 11 -10 8 -3 -4 6 -2 14 4 18 5 3
10 1 10 -6 0 -9 3 -9 14 0 11 9 15 9 18 -1 4 -10 8 -10 21 1 10 7 17 9 17 3 0
-5 15 -8 33 -7 17 2 38 -2 46 -9 11 -8 13 -8 8 0 -4 7 0 14 8 18 8 3 15 1 15
-5 0 -6 6 -6 18 0 10 5 23 6 30 2 13 -8 70 -6 79 3 3 3 14 1 24 -4 11 -6 20
-6 23 -1 6 10 24 9 41 0 11 -7 31 -5 58 6 9 4 17 3 17 -3 0 -5 7 -13 16 -16 8
-3 13 -2 10 3 -9 14 20 21 33 8 8 -8 11 -7 11 4 0 12 2 12 10 -1 9 -13 10 -13
10 0 0 13 1 13 10 0 5 -8 10 -11 10 -7 0 4 10 2 23 -4 19 -11 20 -10 10 2 -10
13 -6 15 33 13 25 -1 48 -5 51 -8 3 -3 15 -1 26 5 15 9 18 8 12 -2 -6 -9 -3
-10 8 -6 10 4 24 10 32 13 8 3 15 2 15 -4 0 -5 7 -13 16 -16 8 -3 13 -2 10 3
-3 5 2 12 11 15 9 4 19 2 23 -4 4 -6 11 -10 16 -9 21 4 26 -2 13 -18 -11 -13
-12 -17 -1 -21 10 -3 8 -8 -5 -18 -17 -13 -17 -14 0 -8 15 6 16 3 7 -21 -13
-34 -13 -38 2 -29 7 5 8 3 2 -7 -10 -17 -15 -91 -5 -85 4 3 7 -4 7 -15 0 -13
-5 -18 -16 -14 -11 5 -12 3 -3 -6 6 -6 9 -18 6 -27 -5 -11 -3 -13 7 -7 10 6
11 4 4 -6 -13 -21 -13 -142 0 -158 8 -11 8 -13 -1 -7 -8 4 -13 1 -13 -9 0 -10
5 -13 13 -9 9 6 9 5 0 -7 -10 -12 -10 -18 0 -29 9 -10 9 -11 0 -6 -7 4 -13 2
-13 -3 0 -6 6 -11 13 -11 7 0 8 -3 2 -8 -11 -8 -17 -84 -6 -77 4 2 8 -2 8 -10
0 -8 -4 -12 -9 -9 -4 3 -8 0 -8 -5 0 -6 6 -11 13 -11 7 0 8 -3 2 -8 -11 -8
-17 -84 -6 -78 4 3 7 -4 7 -15 0 -11 -6 -17 -12 -15 -7 3 -10 -3 -7 -15 3 -11
10 -16 17 -12 7 4 7 1 -1 -8 -10 -12 -10 -18 0 -29 9 -10 9 -11 0 -6 -7 4 -13
2 -13 -3 0 -6 6 -11 13 -11 7 0 8 -3 2 -8 -11 -8 -17 -84 -6 -77 4 2 8 -2 8
-10 0 -8 -4 -12 -9 -9 -4 3 -8 0 -8 -5 0 -6 6 -11 13 -11 7 0 8 -3 2 -8 -11
-8 -17 -84 -6 -78 4 3 7 -4 7 -15 0 -11 -6 -17 -12 -15 -7 3 -10 -3 -7 -15 3
-11 10 -16 17 -12 7 4 7 1 -1 -8 -10 -12 -10 -18 0 -29 9 -10 9 -11 0 -6 -7 4
-13 2 -13 -3 0 -6 6 -11 13 -11 7 0 8 -3 2 -8 -11 -8 -17 -84 -6 -77 4 2 8 -2
8 -10 0 -8 -4 -12 -9 -9 -4 3 -8 0 -8 -5 0 -6 6 -11 13 -11 7 0 8 -3 2 -8 -11
-8 -17 -84 -6 -78 4 3 7 -4 7 -15 0 -11 -6 -17 -12 -15 -7 3 -10 -3 -7 -15 3
-11 10 -16 17 -12 7 4 7 1 -1 -8 -10 -12 -10 -18 0 -29 9 -10 9 -11 0 -6 -7 4
-13 2 -13 -3 0 -6 6 -11 13 -11 7 0 8 -3 2 -8 -11 -8 -17 -84 -6 -77 4 2 8 -2
8 -10 0 -8 -4 -12 -9 -9 -4 3 -8 0 -8 -5 0 -6 6 -11 13 -11 7 0 8 -3 2 -8 -11
-8 -17 -84 -6 -78 4 3 7 -4 7 -15 0 -12 -5 -18 -13 -14 -10 3 -11 0 -5 -13 5
-9 8 -32 6 -50 -1 -18 1 -30 5 -28 4 3 7 -4 7 -15 0 -13 -5 -18 -16 -14 -11 5
-12 3 -3 -6 6 -6 9 -18 6 -27 -5 -11 -3 -13 7 -7 10 6 11 4 4 -6 -12 -19 -13
-141 -2 -156 5 -7 5 -14 -1 -17 -11 -7 -9 -45 4 -65 5 -10 4 -12 -3 -7 -16 10
-15 -16 1 -33 7 -9 7 -11 1 -8 -7 4 -14 0 -17 -8 -4 -10 -1 -12 10 -8 11 4 14
3 9 -5 -11 -18 -18 -64 -8 -59 4 3 8 -3 8 -13 0 -10 -3 -17 -7 -14 -4 2 -10
-3 -13 -12 -3 -8 -2 -13 3 -10 14 9 21 -20 8 -33 -6 -6 -7 -11 -3 -11 5 0 2
-8 -5 -17 -8 -9 -9 -14 -3 -10 7 4 15 0 18 -9 3 -8 2 -12 -4 -9 -6 3 -10 1
-10 -4 0 -6 6 -11 13 -11 7 0 8 -3 2 -8 -12 -8 -17 -84 -5 -77 5 3 6 -4 3 -15
-3 -11 -10 -17 -17 -13 -8 4 -7 2 1 -7 6 -7 9 -19 6 -26 -3 -8 1 -14 8 -14 11
0 11 -2 0 -9 -13 -8 -13 -12 0 -27 8 -10 9 -15 3 -11 -7 4 -14 0 -17 -8 -4 -9
-1 -12 9 -8 10 4 12 0 8 -11 -3 -9 -11 -16 -18 -16 -6 0 -3 -5 7 -11 10 -6 14
-15 10 -22 -9 -15 -13 -88 -4 -83 4 3 7 -4 7 -15 0 -13 -5 -18 -16 -14 -11 5
-12 3 -3 -6 6 -6 9 -18 6 -27 -5 -11 -3 -13 7 -7 10 6 11 4 4 -6 -13 -21 -13
-142 0 -158 8 -11 8 -13 -1 -7 -8 4 -13 1 -13 -9 0 -10 5 -13 12 -9 10 6 10 5
1 -7 -10 -12 -10 -18 0 -29 9 -10 9 -11 0 -6 -7 4 -13 2 -13 -3 0 -6 6 -11 13
-11 7 0 8 -3 2 -8 -11 -8 -17 -84 -6 -77 4 2 8 -2 8 -10 0 -8 -4 -12 -9 -9 -4
3 -8 0 -8 -5 0 -6 6 -11 13 -11 7 0 8 -3 2 -8 -11 -8 -17 -84 -6 -78 4 3 7 -4
7 -15 0 -11 -6 -17 -12 -15 -7 3 -10 -3 -7 -15 3 -11 10 -16 17 -12 7 4 7 1
-1 -8 -10 -12 -10 -18 0 -29 9 -10 9 -11 0 -6 -7 4 -13 2 -13 -3 0 -6 6 -11
13 -11 7 0 8 -3 2 -8 -11 -8 -17 -84 -6 -77 4 2 8 -2 8 -10 0 -8 -4 -12 -9 -9
-4 3 -8 0 -8 -5 0 -6 6 -11 13 -11 7 0 8 -3 2 -8 -11 -8 -17 -84 -6 -78 4 3 7
-4 7 -15 0 -12 -5 -18 -14 -14 -8 3 -10 0 -5 -8 4 -6 8 -23 8 -37 0 -14 5 -31
9 -39 6 -10 5 -12 -2 -7 -16 10 -15 -16 1 -33 7 -9 7 -11 1 -8 -7 4 -14 0 -17
-8 -4 -10 -1 -12 10 -8 11 4 14 3 9 -5 -11 -18 -18 -64 -8 -59 4 3 8 -3 8 -13
0 -10 -3 -17 -7 -14 -4 2 -10 -3 -13 -12 -3 -8 -2 -13 3 -10 14 9 21 -20 8
-33 -6 -6 -7 -11 -3 -11 5 0 2 -8 -5 -17 -8 -9 -9 -14 -3 -10 7 4 15 0 18 -9
3 -8 2 -12 -4 -9 -6 3 -10 1 -10 -4 0 -6 6 -11 13 -11 7 0 8 -3 2 -8 -12 -8
-17 -84 -5 -77 5 3 6 -4 3 -15 -3 -11 -10 -17 -17 -13 -8 4 -7 2 1 -7 6 -7 9
-19 6 -26 -3 -8 1 -14 8 -14 11 0 11 -2 0 -9 -13 -8 -13 -12 0 -27 8 -10 9
-15 3 -11 -7 4 -14 0 -17 -8 -4 -9 -1 -12 9 -8 10 4 12 0 8 -11 -3 -9 -11 -16
-18 -16 -6 0 -3 -5 7 -11 9 -6 14 -15 11 -21 -4 -6 -8 -22 -10 -34 l-2 -24
471 3 c451 2 472 3 469 20 -2 10 3 26 10 35 7 9 8 13 2 9 -7 -4 -11 2 -11 18
0 14 4 22 10 18 6 -4 7 -1 1 8 -13 21 -14 269 0 269 7 0 7 3 -1 8 -14 9 -13
84 2 94 5 4 1 8 -10 8 -17 0 -17 2 -5 10 8 5 11 10 7 10 -4 0 -3 10 4 21 6 12
7 19 1 15 -5 -3 -10 5 -10 19 1 14 5 22 11 18 6 -4 7 -1 1 8 -13 21 -14 269 0
269 7 0 7 3 -1 8 -14 9 -13 84 2 94 5 4 1 8 -10 8 -17 0 -17 2 -5 10 8 5 11
10 7 10 -4 0 -3 10 4 21 6 12 7 19 1 15 -5 -3 -9 5 -9 19 0 14 4 22 10 18 6
-4 7 -1 1 8 -13 21 -14 269 0 269 7 0 7 3 -1 8 -14 9 -13 84 2 94 5 4 1 8 -10
8 -17 0 -17 2 -5 10 8 5 11 10 7 10 -4 0 -3 10 4 21 6 12 7 19 1 15 -5 -3 -9
5 -9 19 0 14 4 22 10 18 6 -4 7 -1 1 8 -13 21 -13 262 0 271 8 6 8 8 -1 8 -15
0 -13 90 2 91 5 0 1 4 -10 9 -11 5 -15 9 -10 9 7 1 10 37 9 101 -1 69 2 100
10 100 8 0 7 3 -1 8 -14 9 -13 84 2 94 5 4 1 8 -10 8 -17 0 -17 2 -5 10 8 5
11 10 7 10 -4 0 -3 10 4 21 6 12 7 19 1 15 -5 -3 -9 5 -9 19 0 14 4 22 10 18
6 -4 7 -1 1 8 -13 21 -13 262 0 271 8 6 8 8 -1 8 -15 0 -13 90 2 90 5 0 3 5
-5 10 -15 10 -13 11 18 14 9 1 23 5 31 10 8 5 12 5 9 0 -4 -5 4 -9 17 -9 13 0
21 3 19 6 -1 3 3 6 11 6 8 0 12 -4 10 -8 -3 -4 6 -6 20 -5 24 1 37 16 13 16
-6 0 -8 3 -5 6 9 9 38 -16 31 -27 -3 -5 2 -6 10 -3 9 3 13 11 9 18 -4 6 2 4
12 -4 17 -14 18 -13 11 5 -7 18 -5 18 14 -2 22 -24 40 -32 22 -10 -8 10 -6 13
9 13 10 0 19 -3 19 -6 0 -3 9 -6 20 -6 11 0 20 4 20 8 0 4 -5 8 -12 8 -6 0 -8
3 -5 6 9 9 38 -16 31 -27 -3 -5 2 -6 10 -3 9 3 13 11 9 18 -4 6 1 4 12 -4 17
-14 17 -13 11 10 -6 24 -6 24 5 3 6 -12 18 -24 27 -28 13 -5 13 -3 1 12 -8 9
-9 14 -2 10 18 -11 73 -15 73 -6 0 5 -5 9 -12 9 -6 0 -8 3 -5 6 9 9 38 -16 32
-26 -3 -5 8 -5 24 0 17 5 42 7 56 6 14 -2 25 1 25 5 0 5 -5 9 -12 9 -6 0 -8 3
-5 6 9 9 38 -16 31 -27 -3 -5 2 -6 10 -3 9 3 13 10 10 15 -3 5 0 9 5 9 6 0 11
-4 11 -10 0 -5 4 -10 10 -10 5 0 7 8 4 18 -5 14 -4 14 4 3 11 -16 52 -23 52
-9 0 4 -5 8 -12 8 -6 0 -8 3 -5 6 9 9 38 -16 31 -27 -3 -5 2 -6 10 -3 9 3 13
10 10 15 -3 5 0 9 5 9 6 0 11 -4 11 -10 0 -5 10 -8 23 -6 12 2 28 -1 35 -7 9
-7 11 -6 7 6 -4 8 -1 18 6 23 7 4 10 3 5 -4 -4 -6 4 -16 16 -23 20 -11 21 -10
11 3 -11 12 -9 14 10 13 13 -2 21 -8 19 -16 -2 -9 4 -7 17 5 12 11 21 14 21 8
0 -7 8 -12 18 -12 13 0 14 2 3 9 -9 6 -4 8 17 8 17 -1 28 -5 26 -9 -3 -5 2 -8
10 -8 10 0 13 6 10 18 -5 14 -4 14 4 3 11 -16 52 -23 52 -9 0 4 -5 8 -12 8 -6
0 -8 3 -5 6 9 9 38 -16 31 -27 -3 -5 2 -6 10 -3 9 3 13 10 10 15 -3 5 0 9 5 9
6 0 11 -4 11 -10 0 -5 4 -10 10 -10 5 0 7 8 4 18 -5 14 -4 14 4 3 11 -16 52
-23 52 -9 0 4 -5 8 -12 8 -6 0 -8 3 -5 6 9 9 38 -16 31 -27 -3 -5 2 -6 10 -3
9 3 13 10 10 15 -3 5 0 9 5 9 6 0 11 -4 11 -9 0 -11 26 -8 37 4 4 4 2 5 -4 1
-7 -4 -13 -3 -13 3 0 5 6 11 13 14 9 3 9 7 0 19 -7 8 -10 18 -6 22 11 11 12
66 2 66 -5 0 -9 5 -9 11 0 5 4 8 9 4 13 -8 10 38 -4 47 -7 5 -6 8 2 8 12 0 12
17 0 37 -4 6 -2 15 4 19 8 5 9 3 4 -6 -6 -9 -4 -11 4 -6 9 6 9 12 -3 25 -12
13 -13 20 -4 29 9 9 9 12 -1 12 -7 0 -9 5 -5 13 5 8 2 8 -9 -2 -14 -11 -17
-11 -17 0 0 11 -2 11 -10 -1 -6 -10 -10 -11 -10 -2 0 6 -5 12 -11 12 -5 0 -7
-6 -3 -12 5 -9 2 -9 -9 1 -9 7 -17 9 -17 4 0 -16 -34 -11 -47 6 -6 9 -15 13
-19 8 -4 -4 -2 -7 4 -7 7 0 12 -5 12 -11 0 -5 -5 -7 -10 -4 -6 4 -18 1 -27 -7
-9 -7 -14 -8 -11 -3 4 6 3 17 -3 25 -7 13 -9 13 -9 0 0 -10 -11 -15 -35 -15
-19 0 -35 4 -35 9 0 5 -6 4 -12 -2 -15 -11 -68 -10 -88 3 -9 5 -11 4 -6 -3 9
-15 1 -15 -26 -1 -13 7 -18 7 -14 1 4 -6 -2 -10 -14 -9 -11 1 -20 5 -20 9 0 4
-5 8 -11 8 -5 0 -7 -6 -3 -12 5 -9 2 -9 -9 1 -9 7 -17 9 -17 4 0 -5 -7 -10
-15 -10 -8 0 -15 3 -15 7 0 3 -9 6 -19 6 -15 0 -17 -3 -9 -13 15 -18 3 -16
-17 3 -12 13 -19 14 -30 4 -11 -9 -15 -9 -15 -1 0 6 -5 11 -11 11 -5 0 -7 -6
-3 -12 5 -9 2 -9 -9 1 -9 7 -17 9 -17 4 0 -5 -13 -9 -30 -8 -16 0 -30 3 -30 7
0 5 -5 8 -11 8 -5 0 -8 -4 -4 -9 6 -11 -28 -7 -47 5 -6 4 -8 3 -4 -4 7 -12
-53 -10 -74 3 -8 5 -11 4 -7 -2 4 -7 -5 -10 -26 -9 -22 2 -31 7 -29 17 2 12 0
11 -10 -1 -15 -17 -38 -24 -38 -12 0 4 -9 8 -19 8 -15 0 -17 -3 -9 -13 8 -10
7 -12 -6 -7 -9 3 -16 10 -16 15 0 5 -5 9 -11 9 -5 0 -7 -6 -3 -12 5 -9 2 -9
-9 1 -9 7 -17 9 -17 4 0 -17 -40 -12 -41 5 0 14 -2 15 -7 2 -9 -19 -40 -19
-53 0 -9 13 -10 12 -5 -2 3 -10 1 -18 -4 -18 -6 0 -10 5 -10 11 0 5 -6 7 -12
3 -18 -11 -48 -12 -48 -2 0 5 -6 6 -12 2 -22 -14 -45 -11 -45 5 0 9 5 19 11
23 8 5 7 8 -1 8 -8 0 -12 13 -11 35 1 19 5 32 9 29 5 -3 6 2 3 10 -3 9 -11 13
-18 9 -8 -5 -8 -3 -1 8 6 8 10 60 9 117 0 68 3 102 10 102 7 0 7 3 -1 8 -14 9
-13 84 2 94 5 4 1 8 -10 8 -17 0 -17 2 -5 10 8 5 11 10 7 10 -4 0 -3 10 4 21
6 12 7 19 1 15 -5 -3 -9 5 -9 19 0 14 4 22 10 18 6 -4 7 -1 1 8 -13 21 -14
269 0 269 7 0 7 3 -1 8 -14 9 -13 84 2 94 5 4 1 8 -10 8 -17 0 -17 2 -5 10 8
5 11 10 7 10 -4 0 -3 10 4 21 6 12 7 19 1 15 -5 -3 -9 5 -9 19 -1 14 4 22 10
18 6 -4 7 -1 1 8 -13 21 -13 191 0 208 7 10 7 13 0 8 -6 -3 -11 0 -11 8 0 8 7
17 14 19 8 3 11 1 8 -4 -7 -11 25 -8 58 5 12 5 17 2 17 -11 0 -16 2 -17 10 -4
5 8 10 11 10 6 0 -5 6 -4 13 3 10 8 17 7 25 -1 9 -9 12 -9 12 2 0 13 2 13 10
0 9 -13 10 -13 10 0 0 13 1 13 10 0 5 -8 10 -11 10 -7 0 4 10 2 23 -4 19 -11
20 -10 10 2 -10 13 -5 14 35 12 55 -4 59 -4 92 0 14 1 31 -4 38 -13 8 -8 11
-10 8 -3 -4 6 -2 14 4 18 5 3 10 1 10 -6 0 -9 3 -9 14 0 11 9 15 9 18 -1 4
-10 8 -10 21 1 10 7 17 9 17 3 0 -5 15 -8 33 -7 17 2 38 -2 46 -9 11 -8 13 -8
8 0 -4 7 0 14 8 18 8 3 15 1 15 -5 0 -6 6 -6 18 0 10 5 23 6 30 2 13 -8 70 -6
79 3 3 3 14 1 24 -4 11 -6 20 -6 23 -1 6 10 24 9 41 -1 6 -3 19 -2 30 2 13 5
24 2 33 -9 8 -9 11 -11 8 -4 -4 6 -2 14 4 18 5 3 10 1 10 -6 0 -9 3 -9 14 0
11 9 15 9 18 -1 4 -10 8 -10 21 1 11 9 17 10 17 2 0 -11 28 -9 63 4 9 4 17 3
17 -3 0 -5 7 -13 16 -16 8 -3 13 -2 10 3 -9 14 20 21 33 8 8 -8 11 -7 11 4 0
12 2 12 10 -1 9 -13 10 -13 10 0 0 13 1 13 10 0 5 -8 10 -11 10 -7 0 4 10 2
23 -4 19 -11 20 -10 10 2 -10 13 -5 14 35 12 55 -4 59 -4 92 0 14 1 31 -4 38
-13 8 -8 11 -10 8 -3 -4 6 -2 14 4 18 5 3 10 1 10 -6 0 -9 3 -9 14 0 11 9 15
9 18 -1 4 -10 8 -10 21 1 10 7 17 9 17 3 0 -5 15 -8 33 -7 17 2 38 -2 46 -9
11 -8 13 -8 8 0 -4 7 0 14 8 18 8 3 15 1 15 -5 0 -6 6 -6 18 0 10 5 23 6 30 2
7 -4 27 -6 44 -4 51 6 52 6 68 2 13 -4 15 37 15 321 l0 325 -2212 3 -2213 2
-1 -22z"/>
</g>
</svg>
